<svg width="24" height="24" viewBox="0 0 24 24" fill="none" xmlns="http://www.w3.org/2000/svg">
<rect width="24" height="24" rx="5.5" fill="black"/>
<path d="M8.32474 18.9996V9.55347H5.18496V18.9996H8.32474ZM6.75557 8.26406C7.85025 8.26406 8.5317 7.53871 8.5317 6.6322C8.51122 5.70504 7.85016 5 6.77638 5C5.7026 5 5 5.70512 5 6.63211C5 7.55911 5.68128 8.26398 6.73501 8.26398H6.75557V8.26406ZM10.0627 18.9997H13.2022V13.7251C13.2022 13.4432 13.2227 13.1605 13.3056 12.9592C13.5325 12.3949 14.0491 11.8107 14.9167 11.8107C16.0525 11.8107 16.5071 12.6769 16.5071 13.9468V18.9997H19.6465V13.5836C19.6465 10.6823 18.0978 9.33211 16.0322 9.33211C14.3386 9.33211 13.5948 10.2786 13.1816 10.9234H13.2025V9.55389H10.0629C10.1038 10.44 10.0626 19 10.0626 19V18.9997H10.0627Z" fill="white"/>
</svg>
