<svg width="120" height="32" viewBox="0 0 120 32" fill="none" xmlns="http://www.w3.org/2000/svg">
<path d="M10.1494 0C10.4789 0.000103537 10.7459 0.267176 10.7461 0.59668V21.4932C10.746 22.8117 9.67699 23.8809 8.3584 23.8809H0.59668C0.267126 23.8807 0 23.6128 0 23.2832V20.8955C1.93258e-06 19.5768 1.06899 18.508 2.3877 18.5078H5.37305V2.3877C5.37324 1.06912 6.44217 0.000229562 7.76074 0H10.1494Z" fill="black"/>
<path d="M21.7908 5.96998C26.7363 5.96998 30.7458 9.97967 30.7459 14.9251C30.7459 19.8706 26.7364 23.8801 21.7908 23.8801C16.8454 23.88 12.8358 19.8705 12.8358 14.9251C12.8359 9.97972 16.8455 5.97007 21.7908 5.96998ZM21.7908 11.343C19.8128 11.3431 18.209 12.9471 18.2088 14.9251C18.2088 16.9032 19.8127 18.507 21.7908 18.5071C23.769 18.5071 25.3729 16.9033 25.3729 14.9251C25.3727 12.947 23.7689 11.343 21.7908 11.343Z" fill="black"/>
<path d="M37.6121 0C37.9416 0.000126453 38.2086 0.26719 38.2087 0.59668V6.7168C39.3058 6.23727 40.517 5.96977 41.7908 5.96973C46.7361 5.96973 50.7456 9.97953 50.7458 14.9248C50.7458 19.8703 46.7363 23.8799 41.7908 23.8799C40.5169 23.8798 39.3059 23.6124 38.2087 23.1328V23.2832C38.2087 23.6128 37.9417 23.8807 37.6121 23.8809H35.2234C33.9047 23.8807 32.8357 22.8109 32.8357 21.4922V2.3877C32.8359 1.0691 33.9048 0.000206634 35.2234 0H37.6121ZM41.7908 11.3428C39.8129 11.3429 38.209 12.947 38.2087 14.9248C38.2087 16.9029 39.8127 18.5067 41.7908 18.5068C43.769 18.5068 45.3728 16.903 45.3728 14.9248C45.3725 12.9469 43.7688 11.3428 41.7908 11.3428Z" fill="black"/>
<path d="M62.9854 5.96998C63.3149 5.97021 63.5821 6.23806 63.5821 6.56763V8.95533C63.582 10.274 62.513 11.3428 61.1944 11.343H58.209V23.2835C58.209 23.6132 57.9411 23.8801 57.6114 23.8801H55.2237C53.9049 23.8801 52.836 22.8113 52.836 21.4924V8.35865C52.836 7.0398 53.9049 5.97004 55.2237 5.96998H62.9854Z" fill="black"/>
<path d="M70.448 5.96973C70.7776 5.96989 71.0447 6.23777 71.0447 6.56739V23.2832C71.0447 23.6128 70.7776 23.8807 70.448 23.8809H68.0593C66.7406 23.8807 65.6716 22.811 65.6716 21.4922V8.35841C65.6716 7.03962 66.7406 5.96991 68.0593 5.96973H70.448ZM70.448 7.62939e-06C70.7775 0.000136142 71.0445 0.267199 71.0447 0.596687V4.17872C71.0447 4.50836 70.7776 4.77625 70.448 4.77637H68.0593C66.7406 4.77617 65.6716 3.70646 65.6716 2.3877C65.6718 1.06911 66.7407 0.000212203 68.0593 7.62939e-06H70.448Z" fill="black"/>
<path d="M97.9109 7.62939e-06C98.2404 0.000138202 98.5074 0.2672 98.5076 0.596687V5.96973H104.776C106.095 5.96982 107.164 7.03957 107.164 8.35841V23.2832C107.164 23.6129 106.897 23.8808 106.567 23.8809H104.179C102.861 23.8809 101.791 22.8111 101.791 21.4922V11.3438H98.5076V23.2832C98.5076 23.6129 98.2405 23.8807 97.9109 23.8809H95.5222C94.2035 23.8807 93.1345 22.811 93.1345 21.4922V2.3877C93.1347 1.06911 94.2036 0.000210141 95.5222 7.62939e-06H97.9109Z" fill="black"/>
<path d="M90.4478 5.96998C90.7775 5.97 91.0444 6.23793 91.0444 6.56763V14.9251C91.0444 17.009 90.3302 18.9249 89.1362 20.4465C90.3156 21.6337 91.0444 23.2688 91.0444 25.0745C91.0444 28.7013 88.1047 31.6416 84.478 31.6419H77.8755C77.6475 31.6416 77.4626 31.4567 77.4624 31.2288V28.9309C77.4625 27.4607 78.6544 26.2691 80.1245 26.2688H84.478C85.1373 26.2685 85.6714 25.7338 85.6714 25.0745C85.6713 24.4153 85.1372 23.8804 84.478 23.8801H82.2388V23.8762C82.189 23.877 82.1393 23.8801 82.0894 23.8801C77.144 23.88 73.1343 19.8705 73.1343 14.9251C73.1344 9.97975 77.1441 5.97012 82.0894 5.96998C83.5483 5.96998 84.9249 6.32068 86.1421 6.9397C86.5778 6.35204 87.2752 5.96998 88.063 5.96998H90.4478ZM82.0894 11.343C80.1113 11.3431 78.5075 12.947 78.5073 14.9251C78.5073 16.9032 80.1112 18.507 82.0894 18.5071C84.0676 18.5071 85.6714 16.9033 85.6714 14.9251C85.6712 12.947 84.0675 11.343 82.0894 11.343Z" fill="black"/>
<path d="M114.03 0C114.36 0.000190296 114.627 0.267229 114.627 0.59668V5.96973H119.403C119.733 5.96993 120 6.23779 120 6.56738V8.95508C120 10.2738 118.931 11.3435 117.612 11.3438H114.627V18.5078H119.403C119.733 18.508 120 18.7749 120 19.1045V21.4922C120 22.8109 118.931 23.8806 117.612 23.8809H111.642C110.323 23.8807 109.254 22.811 109.254 21.4922V2.3877C109.254 1.06906 110.323 0.000142742 111.642 0H114.03Z" fill="black"/>
</svg>
