<svg width="16" height="16" viewBox="0 0 16 16" fill="none" xmlns="http://www.w3.org/2000/svg">
<path d="M4.17739 14.037C3.1865 14.4017 2.19494 14.6426 1.5 14.5C1.35613 13.8039 1.59669 12.8123 1.96144 11.8218C2.77874 9.60233 4.69292 7.98874 6.86687 7.05704L10.5 5.49997L8.94295 9.13306C8.01126 11.3071 6.39708 13.2202 4.17739 14.037Z" fill="white" stroke="black" stroke-width="1.2" stroke-linecap="round" stroke-linejoin="round"/>
<path d="M3 10L0.779962 6.89195C0.607725 6.65082 0.582885 6.33423 0.715407 6.06919L1.22361 5.05279C1.393 4.714 1.73926 4.5 2.11803 4.5L7 4.5L10 6L3 10Z" fill="white" stroke="black" stroke-width="1.2" stroke-linecap="round" stroke-linejoin="round"/>
<path d="M6 13L9.10805 15.22C9.34918 15.3923 9.66577 15.4171 9.93081 15.2846L10.9472 14.7764C11.286 14.607 11.5 14.2607 11.5 13.882L11.5 9L10 6L6 13Z" fill="white" stroke="black" stroke-width="1.2" stroke-linecap="round" stroke-linejoin="round"/>
<path d="M6.04375 12.5438L3.45625 9.95625C3.18378 9.68378 3.11623 9.26753 3.28856 8.92289L3.6993 8.10139C5.72219 4.05562 9.85727 1.5 14.3806 1.5C14.4465 1.5 14.5 1.55347 14.5 1.61942C14.5 6.14273 11.9444 10.2778 7.89861 12.3007L7.07711 12.7114C6.73247 12.8838 6.31622 12.8162 6.04375 12.5438Z" fill="white" stroke="black" stroke-width="1.2" stroke-linejoin="round"/>
<path d="M11.5 1.5V1.5C11.8028 3.01388 12.9861 4.19722 14.5 4.5V4.5" stroke="black" stroke-width="1.2" stroke-linejoin="round"/>
<path d="M9.00002 6.00002C9.00002 5.44774 9.44774 5.00002 10 5.00002C10.5523 5.00002 11 5.44774 11 6.00002C11 6.55231 10.5523 7.00002 10 7.00002C9.44774 7.00002 9.00002 6.55231 9.00002 6.00002Z" fill="black"/>
</svg>
