<svg width="24" height="24" viewBox="0 0 24 24" fill="none" xmlns="http://www.w3.org/2000/svg">
<rect width="24" height="24" rx="5.5" fill="black"/>
<path d="M16.2597 7.14176C15.7125 6.60854 15.3477 5.89491 15.2113 5.11112C15.1933 5.00688 15.1793 4.90064 15.1692 4.7964V4.44159H12.4029V15.4207C12.3989 16.6996 11.3585 17.736 10.0776 17.736C9.70074 17.736 9.34593 17.6458 9.03121 17.4874C8.64642 17.2939 8.32303 16.9972 8.09718 16.6304C7.87133 16.2637 7.75192 15.8414 7.75229 15.4107C7.75229 14.1277 8.79267 13.0853 10.0776 13.0853C10.3242 13.0853 10.5607 13.1234 10.7832 13.1936V10.3832C10.5527 10.3511 10.3182 10.3351 10.0856 10.3351C7.2752 10.3411 5 12.6163 5 15.4207C5 17.1807 5.89404 18.7303 7.25315 19.6423C8.08979 20.2048 9.07549 20.5043 10.0836 20.5023C12.892 20.5023 15.1672 18.2271 15.1672 15.4207V9.80986C16.2851 10.6095 17.6256 11.0386 19 11.0367V8.28838C18.577 8.28838 18.1581 8.22023 17.7612 8.08592C17.4825 7.9917 16.9553 7.82332 16.2577 7.14176H16.2597Z" fill="white"/>
</svg>
